# xmcd
#
# Track frame offsets:
#	150
#	11970
#	24418
#	35303
#	53838
#	66018
#	80570
#	92290
#	105538
#	119893
#	130933
#	146345
#	157823
#	171180
#	184863
#	197100
#
# Disc length: 2806 seconds
#
# Revision: 0
# Processed by: cddbd v1.4PL0 Copyright (c) Steve Scherf et al.
# Submitted via: dBpowerAMP V4.0
#
DISCID=d20af410
DTITLE=Los Freddy's - 16 Exitos
DYEAR=2000
DGENRE=Ballad
TTITLE0=Dejenme Llorar
TTITLE1=Tu Inolvidable Sonrisa
TTITLE2=Que Ganas con Llorar
TTITLE3=Es Mejor Decir Adios
TTITLE4=Aunque Me Hagas Llorar
TTITLE5=El Tren
TTITLE6=Mato Mi Corazon
TTITLE7=La Peor de las Derrotas
TTITLE8=Sin Tu Amor
TTITLE9=Si Acaso Vuelves
TTITLE10=El Carino que Perdi
TTITLE11=Llegara Tu Final
TTITLE12=Con Tu Adios
TTITLE13=Ni con Treinta Monedas
TTITLE14=Lagrimas Son
TTITLE15=El Primer Tonto
EXTD=Florencio Lopez
EXTT0=
EXTT1=
EXTT2=
EXTT3=
EXTT4=
EXTT5=
EXTT6=
EXTT7=
EXTT8=
EXTT9=
EXTT10=
EXTT11=
EXTT12=
EXTT13=
EXTT14=
EXTT15=
PLAYORDER=
